<svg width="40" height="40" viewBox="0 0 40 40" fill="none" xmlns="http://www.w3.org/2000/svg">
<rect width="40" height="40" rx="13" fill="url(#paint0_linear_2_12)"/>
<path d="M26.8333 11.2H25.7333V10.1C25.7333 9.80826 25.6174 9.52847 25.4111 9.32218C25.2048 9.11589 24.925 9 24.6333 9C24.3416 9 24.0618 9.11589 23.8555 9.32218C23.6492 9.52847 23.5333 9.80826 23.5333 10.1V11.2H16.9333V10.1C16.9333 9.80826 16.8174 9.52847 16.6111 9.32218C16.4048 9.11589 16.1251 9 15.8333 9C15.5416 9 15.2618 9.11589 15.0555 9.32218C14.8492 9.52847 14.7333 9.80826 14.7333 10.1V11.2H13.6333C12.7581 11.2 11.9187 11.5477 11.2999 12.1665C10.681 12.7854 10.3333 13.6248 10.3333 14.5V27.7C10.3333 28.5752 10.681 29.4146 11.2999 30.0335C11.9187 30.6523 12.7581 31 13.6333 31H26.8333C27.7085 31 28.5479 30.6523 29.1668 30.0335C29.7856 29.4146 30.1333 28.5752 30.1333 27.7V14.5C30.1333 13.6248 29.7856 12.7854 29.1668 12.1665C28.5479 11.5477 27.7085 11.2 26.8333 11.2ZM15.8333 25.5C15.6158 25.5 15.4031 25.4355 15.2222 25.3146C15.0413 25.1937 14.9003 25.0219 14.817 24.821C14.7338 24.62 14.712 24.3988 14.7544 24.1854C14.7969 23.972 14.9017 23.776 15.0555 23.6222C15.2093 23.4683 15.4053 23.3636 15.6187 23.3211C15.8321 23.2787 16.0533 23.3005 16.2543 23.3837C16.4553 23.467 16.6271 23.608 16.7479 23.7889C16.8688 23.9698 16.9333 24.1824 16.9333 24.4C16.9333 24.6917 16.8174 24.9715 16.6111 25.1778C16.4048 25.3841 16.1251 25.5 15.8333 25.5ZM24.6333 25.5H20.2333C19.9416 25.5 19.6618 25.3841 19.4555 25.1778C19.2492 24.9715 19.1333 24.6917 19.1333 24.4C19.1333 24.1083 19.2492 23.8285 19.4555 23.6222C19.6618 23.4159 19.9416 23.3 20.2333 23.3H24.6333C24.925 23.3 25.2048 23.4159 25.4111 23.6222C25.6174 23.8285 25.7333 24.1083 25.7333 24.4C25.7333 24.6917 25.6174 24.9715 25.4111 25.1778C25.2048 25.3841 24.925 25.5 24.6333 25.5ZM27.9333 18.9H12.5333V14.5C12.5333 14.2083 12.6492 13.9285 12.8555 13.7222C13.0618 13.5159 13.3416 13.4 13.6333 13.4H14.7333V14.5C14.7333 14.7917 14.8492 15.0715 15.0555 15.2778C15.2618 15.4841 15.5416 15.6 15.8333 15.6C16.1251 15.6 16.4048 15.4841 16.6111 15.2778C16.8174 15.0715 16.9333 14.7917 16.9333 14.5V13.4H23.5333V14.5C23.5333 14.7917 23.6492 15.0715 23.8555 15.2778C24.0618 15.4841 24.3416 15.6 24.6333 15.6C24.925 15.6 25.2048 15.4841 25.4111 15.2778C25.6174 15.0715 25.7333 14.7917 25.7333 14.5V13.4H26.8333C27.125 13.4 27.4048 13.5159 27.6111 13.7222C27.8174 13.9285 27.9333 14.2083 27.9333 14.5V18.9Z" fill="white"/>
<defs>
<linearGradient id="paint0_linear_2_12" x1="1.23348e-07" y1="2.66667" x2="36.6667" y2="36" gradientUnits="userSpaceOnUse">
<stop stop-color="#5DA7FF"/>
<stop offset="1" stop-color="#FF7777"/>
</linearGradient>
</defs>
</svg>
